#!OML:ASF H:\Terrain\Patient Classification 1\PLAYGROUND\JustinFriday\JustinFriday.ASF
:FULLY-SPECIFIED
:DEGREES
1827
root 12.3991 15.8787 8.03092 155.025 -3.85829 -177.784
lowerback 8.84812 -0.775676 -3.05253
upperback 1.68641 -1.49814 -1.13943
thorax -3.1656 -0.780249 0.710127
lowerneck 11.5408 -2.64526 -7.57124
upperneck 14.575 -7.40841 8.66194
head 3.0527 -4.79003 3.90175
rclavicle -3.57812e-015 -2.38542e-015
rhumerus 9.12865 11.2544 -46.359
rradius 110.364
rwrist 8.33897
rhand -29.0797 -37.7144
rfingers 7.12502
rthumb -2.42864 -427.68
lclavicle -3.57812e-015 -2.38542e-015
lhumerus 9.89664 -12.3741 63.1732
lradius 105.567
lwrist -19.4697
lhand -33.0639 -0.787191
lfingers 7.12502
lthumb -6.27588 29.0998
rfemur -26.9439 -9.395 26.4681
rtibia 32.3216
rfoot -15.3311 -14.7534
rtoes 15.6544
lfemur 17.4607 12.2866 -15.6159
ltibia 53.2856
lfoot -36.3082 -6.4496
ltoes -10.2152
1828
root 12.3867 15.8111 7.93955 155.38 -3.7636 -177.468
lowerback 8.62602 -0.743601 -2.63404
upperback 1.90777 -1.41315 -1.15141
thorax -2.82608 -0.752073 0.446967
lowerneck 10.2949 -2.80901 -7.39241
upperneck 14.9132 -7.48908 8.73983
head 3.35051 -4.75229 3.8525
rclavicle 1.47101e-014 -1.51076e-014
rhumerus 9.40371 11.5755 -48.1565
rradius 107.596
rwrist 8.24461
rhand -29.3213 -37.6256
rfingers 7.12502
rthumb -2.66199 -427.589
lclavicle 1.47101e-014 -1.51076e-014
lhumerus 10.6088 -13.4763 64.9395
lradius 103.146
lwrist -20.6189
lhand -31.3882 -0.0605499
lfingers 7.12502
lthumb -4.65801 29.8682
rfemur -26.5557 -9.66502 27.2366
rtibia 32.7376
rfoot -15.923 -15.0629
rtoes 17.298
lfemur 16.9552 12.3252 -15.1674
ltibia 54.4636
lfoot -36.7771 -7.4012
ltoes -8.16749
1829
root 12.3753 15.7308 7.84417 155.62 -3.69806 -177.328
lowerback 8.58915 -0.73169 -2.44907
upperback 1.97537 -1.37934 -1.11898
thorax -2.74002 -0.738965 0.371705
lowerneck 9.28763 -3.00299 -7.22442
upperneck 15.4765 -7.65642 8.39037
head 3.67859 -4.7957 3.67469
rclavicle -5.1684e-015 1.59028e-014
rhumerus 9.67536 12.3801 -49.5328
rradius 104.412
rwrist 10.4665
rhand -30.6256 -38.6388
rfingers 7.12502
rthumb -3.92158 -428.582
lclavicle -5.1684e-015 1.59028e-014
lhumerus 11.0472 -14.3687 66.6384
lradius 100.757
lwrist -21.8627
lhand -28.9745 0.293545
lfingers 7.12502
lthumb -2.32705 30.2606
rfemur -26.09 -10.0308 27.8512
rtibia 33.2182
rfoot -16.0111 -15.656
rtoes 17.4892
lfemur 16.5808 12.3715 -14.8947
ltibia 55.7207
lfoot -37.4929 -7.72288
ltoes -7.69896
1830
root 12.3644 15.6487 7.74877 155.736 -3.52783 -177.09
lowerback 8.70675 -0.719262 -2.16731
upperback 2.016 -1.33589 -0.970905
thorax -2.76689 -0.71883 0.363675
lowerneck 8.50416 -3.18939 -7.35149
upperneck 15.8912 -7.84224 8.13644
head 3.94196 -4.86739 3.58254
rclavicle 1.07344e-014 -1.35174e-014
rhumerus 10.1717 12.9974 -50.6242
rradius 101.513
rwrist 11.4944
rhand -30.7057 -39.0504
rfingers 7.12502
rthumb -3.99892 -428.993
lclavicle 1.07344e-014 -1.35174e-014
lhumerus 11.6466 -15.197 67.943
lradius 98.1858
lwrist -22.8563
lhand -26.1791 0.621772
lfingers 7.12502
lthumb 0.372766 30.6012
rfemur -25.6056 -10.4962 28.6207
rtibia 33.8912
rfoot -15.7834 -16.3559
rtoes 16.3694
lfemur 16.3421 12.52 -14.3824
ltibia 56.9874
lfoot -38.3178 -7.5155
ltoes -8.31213
1831
root 12.3513 15.5729 7.65463 156.062 -3.65659 -177.175
lowerback 8.62802 -0.799043 -2.31712
upperback 1.97152 -1.44605 -0.905092
thorax -2.76146 -0.769925 0.526393
lowerneck 8.0187 -3.11812 -7.83587
upperneck 16.21 -7.77384 8.27244
head 4.13139 -4.83992 3.68812
rclavicle -4.77083e-015 -3.02153e-014
rhumerus 10.8869 13.6529 -51.5754
rradius 98.5734
rwrist 13.3896
rhand -30.4579 -39.3284
rfingers 7.12502
rthumb -3.75963 -429.275
lclavicle -4.77083e-015 -3.02153e-014
lhumerus 12.1942 -15.7614 69.1635
lradius 95.5883
lwrist -23.9515
lhand -24.2998 0.975137
lfingers 7.12502
lthumb 2.18786 30.9437
rfemur -25.3373 -11.1555 28.9359
rtibia 34.7272
rfoot -15.9052 -16.65
rtoes 16.561
lfemur 15.8487 12.6231 -14.4106
ltibia 58.2211
lfoot -38.9266 -6.93193
ltoes -9.84584
1832
root 12.3384 15.5036 7.56316 156.497 -3.95278 -177.509
lowerback 8.52762 -0.888048 -2.74204
upperback 1.88296 -1.59554 -0.928
thorax -2.78277 -0.8381 0.755733
lowerneck 7.58909 -2.94522 -8.2717
upperneck 16.6489 -7.60195 8.42317
head 4.33796 -4.77226 3.79546
rclavicle 2.18663e-015 -2.3059e-014
rhumerus 11.6813 14.1132 -52.4596
rradius 95.9479
rwrist 15.9439
rhand -28.7805 -39.2106
rfingers 7.12502
rthumb -2.13975 -429.18
lclavicle 2.18663e-015 -2.3059e-014
lhumerus 12.7675 -16.1894 70.2478
lradius 92.9132
lwrist -25.3268
lhand -24.2346 0.811382
lfingers 7.12502
lthumb 2.25078 30.7793
rfemur -25.1828 -11.7215 28.8636
rtibia 35.6854
rfoot -16.7772 -16.624
rtoes 19.8192
lfemur 15.2097 12.713 -14.7884
ltibia 59.3718
lfoot -39.1699 -6.64891
ltoes -10.7741
1833
root 12.3286 15.4577 7.47322 156.809 -3.85129 -177.355
lowerback 8.57098 -0.934751 -2.61909
upperback 1.92427 -1.64039 -0.742653
thorax -2.76047 -0.86109 0.883344
lowerneck 6.82451 -2.89646 -8.58009
upperneck 17.1288 -7.50199 8.35846
head 4.60862 -4.71778 3.80296
rclavicle 7.7526e-015 -1.19271e-014
rhumerus 13.5264 13.5963 -54.2654
rradius 93.3461
rwrist 19.3249
rhand -25.414 -37.7944
rfingers 7.12502
rthumb 1.11169 -427.771
lclavicle 7.7526e-015 -1.19271e-014
lhumerus 14.0441 -16.0909 71.6597
lradius 90.4312
lwrist -26.3434
lhand -24.3645 -0.0969984
lfingers 7.12502
lthumb 2.12538 29.8722
rfemur -25.0679 -11.7678 29.4428
rtibia 36.4685
rfoot -17.1672 -17.5062
rtoes 20.7776
lfemur 14.7116 12.8755 -14.4295
ltibia 60.427
lfoot -39.1513 -7.18868
ltoes -9.84952
1834
root 12.3202 15.4402 7.38307 157.027 -3.69134 -177.152
lowerback 8.74385 -0.981561 -2.47449
upperback 1.99163 -1.69014 -0.522465
thorax -2.78234 -0.888034 1.03824
lowerneck 6.34064 -5.32551 -9.04676
upperneck 17.5873 -6.73307 7.56405
head 4.82041 -2.80032 3.75511
rclavicle 1.13307e-014 -9.14409e-015
rhumerus 14.1561 14.7598 -53.4072
rradius 91.3201
rwrist 20.5634
rhand -24.9861 -36.7906
rfingers 7.12502
rthumb 1.52502 -426.765
lclavicle 1.13307e-014 -9.14409e-015
lhumerus 15.3514 -16.0287 72.5782
lradius 87.8043
lwrist -26.6039
lhand -24.7748 -1.34559
lfingers 7.12502
lthumb 1.72904 28.6271
rfemur -25.2073 -11.867 30.2068
rtibia 37.083
rfoot -18.0038 -18.3618
rtoes 22.8851
lfemur 14.3338 13.0187 -13.9622
ltibia 61.443
lfoot -38.8458 -7.65357
ltoes -9.96247
1835
root 12.3088 15.4205 7.28943 157.253 -3.71531 -177.272
lowerback 9.03382 -0.905779 -2.45352
upperback 1.99188 -1.60419 -0.578092
thorax -2.94818 -0.845793 0.966734
lowerneck 6.2803 -3.03368 -8.5777
upperneck 16.9411 -7.46818 8.011
head 4.62871 -4.65369 3.68036
rclavicle -2.78299e-015 -2.82274e-014
rhumerus 14.6525 14.6829 -54.2225
rradius 89.5469
rwrist 21.9792
rhand -24.5524 -35.1399
rfingers 7.12502
rthumb 1.94381 -425.111
lclavicle -2.78299e-015 -2.82274e-014
lhumerus 16.6667 -16.5406 72.9795
lradius 85.1246
lwrist -27.223
lhand -25.4664 -2.53703
lfingers 7.12502
lthumb 1.06111 27.4401
rfemur -25.9968 -11.4218 30.1566
rtibia 37.4775
rfoot -17.0301 -19.1712
rtoes 26.695
lfemur 13.8731 13.1106 -13.9127
ltibia 62.5722
lfoot -38.0294 -8.43364
ltoes -11.4219
1836
root 12.2924 15.3868 7.20579 157.51 -3.49023 -177.005
lowerback 9.40771 -0.854219 -1.92484
upperback 1.9926 -1.49694 -0.504185
thorax -3.1696 -0.795446 0.742709
lowerneck 5.94205 -3.16075 -8.47232
upperneck 17.0975 -7.59587 7.88962
head 4.73666 -4.7002 3.60851
rclavicle 4.57205e-015 0
rhumerus 15.4777 14.6749 -54.8457
rradius 87.8935
rwrist 22.5519
rhand -23.5932 -33.2933
rfingers 7.12502
rthumb 2.87026 -423.254
lclavicle 4.57205e-015 0
lhumerus 17.8643 -17.0431 73.1363
lradius 82.8921
lwrist -27.9886
lhand -26.185 -3.21226
lfingers 7.12502
lthumb 0.367111 26.7672
rfemur -26.831 -11.2045 30.6032
rtibia 37.9274
rfoot -14.6462 -19.5524
rtoes 31.4799
lfemur 13.09 13.2427 -13.3184
ltibia 64.0732
lfoot -36.7474 -10.9886
ltoes -10.8501
1837
root 12.2803 15.3383 7.12909 157.824 -3.0108 -176.649
lowerback 9.81703 -0.87869 -1.4717
upperback 2.05843 -1.48887 -0.179981
thorax -3.33073 -0.796964 0.831226
lowerneck 4.9868 -5.43899 -9.1497
upperneck 18.1269 -6.83197 7.28691
head 5.21537 -2.8677 3.64795
rclavicle -2.09718e-014 1.51076e-014
rhumerus 16.8035 15.0146 -55.1629
rradius 86.5088
rwrist 22.7668
rhand -23.2174 -32.0935
rfingers 7.12502
rthumb 3.23311 -422.049
lclavicle -2.09718e-014 1.51076e-014
lhumerus 18.8378 -16.858 73.4332
lradius 81.1877
lwrist -29.3225
lhand -26.349 -3.4336
lfingers 7.12502
lthumb 0.208709 26.546
rfemur -27.6479 -10.8622 31.2126
rtibia 38.4603
rfoot -11.9697 -19.7009
rtoes 33.9255
lfemur 11.9822 13.5769 -12.4422
ltibia 66.0012
lfoot -35.7159 -13.3002
ltoes -10.7426
1838
root 12.27 15.275 7.05181 158.047 -2.35617 -176.376
lowerback 10.3431 -0.817442 -1.10857
upperback 2.21597 -1.3857 0.160684
thorax -3.46037 -0.757467 0.977146
lowerneck 3.63449 -5.4124 -9.48312
upperneck 18.9677 -6.71625 7.14273
head 5.70349 -2.82125 3.63565
rclavicle -4.77083e-015 3.18055e-015
rhumerus 18.0546 15.2524 -55.5362
rradius 85.6329
rwrist 22.8388
rhand -24.4892 -33.1572
rfingers 7.12502
rthumb 2.00487 -423.128
lclavicle -4.77083e-015 3.18055e-015
lhumerus 19.7555 -16.4217 73.8186
lradius 79.7493
lwrist -31.6033
lhand -25.78 -3.65168
lfingers 7.12502
lthumb 0.75825 26.3267
rfemur -28.4156 -10.6672 31.8292
rtibia 39.3635
rfoot -10.0566 -19.3628
rtoes 33.0024
lfemur 10.7531 14.1097 -11.4975
ltibia 68.3019
lfoot -35.4752 -13.9828
ltoes -13.5185
1839
root 12.2546 15.2099 6.97847 158.117 -1.58238 -175.839
lowerback 11.0516 -0.708125 -0.353577
upperback 2.42656 -1.18525 0.462355
thorax -3.64516 -0.679132 0.85134
lowerneck 2.45736 -5.55804 -9.38575
upperneck 19.5438 -6.83674 6.86702
head 6.08392 -2.88155 3.49918
rclavicle -1.71949e-014 -7.55382e-015
rhumerus 18.7687 15.599 -55.3888
rradius 84.9546
rwrist 22.5888
rhand -26.765 -35.6779
rfingers 7.12502
rthumb -0.193107 -425.658
lclavicle -1.71949e-014 -7.55382e-015
lhumerus 20.5833 -16.2786 73.8683
lradius 78.6605
lwrist -33.638
lhand -24.8847 -3.70199
lfingers 7.12502
lthumb 1.62293 26.2716
rfemur -29.0382 -10.6679 32.7694
rtibia 40.5758
rfoot -9.39159 -18.8928
rtoes 32.6871
lfemur 9.44015 14.6046 -10.1163
ltibia 70.9701
lfoot -33.1868 -15.4952
ltoes -16.8036
